<?xml version="1.0" encoding="utf-8"?>
<!-- Generator: Adobe Illustrator 23.0.3, SVG Export Plug-In . SVG Version: 6.00 Build 0)  -->
<svg version="1.1" xmlns="http://www.w3.org/2000/svg" xmlns:xlink="http://www.w3.org/1999/xlink" x="0px" y="0px"
	 viewBox="0 0 720 360" style="enable-background:new 0 0 720 360;" xml:space="preserve">
<style type="text/css">
	.st0{display:none;}
	.st1{display:inline;fill:#FFAD1D;}
	.st2{display:inline;}
	.st3{fill:#FFAD1D;}
	.st4{fill:#D0B285;}
	.st5{fill:#2CA8C4;}
	.st6{fill:#D8D7D6;}
	.st7{fill:#D3C8BA;}
	.st8{fill:#FFFFFF;stroke:#000000;stroke-miterlimit:10;}
	.st9{fill:#F7F5F2;}
	.st10{fill:#1D3D56;}
	.st11{fill:#515151;}
	.st12{fill:#7C440B;}
	.st13{fill:#EDE7E2;}
	.st14{fill:#F26C11;}
	.st15{fill:none;stroke:#7C440B;stroke-width:3.8321;stroke-miterlimit:10;}
	.st16{fill:#985914;}
	.st17{fill:#DD3131;}
	.st18{fill:none;stroke:#1D3D56;stroke-width:2;stroke-linecap:square;stroke-linejoin:round;stroke-miterlimit:10;}
	.st19{fill:#FFFFFF;}
	.st20{fill:none;stroke:#FFAD1D;stroke-width:1.0894;stroke-miterlimit:10;}
	.st21{fill:#E6E1D9;}
	.st22{fill:none;stroke:#1D3D56;stroke-width:1.1395;stroke-linecap:square;stroke-linejoin:round;stroke-miterlimit:10;}
	.st23{fill:none;stroke:#1D3D56;stroke-width:0.6849;stroke-linecap:square;stroke-linejoin:round;stroke-miterlimit:10;}
	.st24{fill:none;stroke:#1D3D56;stroke-width:2.4192;stroke-linecap:square;stroke-linejoin:round;stroke-miterlimit:10;}
	.st25{fill:none;stroke:#FFAD1D;stroke-width:1.1447;stroke-miterlimit:10;}
	.st26{fill:none;stroke:#7C440B;stroke-width:4.2466;stroke-miterlimit:10;}
</style>
<g id="bubbles-draft" class="st0">
</g>
<g id="speech_bubbles">
</g>
<g id="guides">
</g>
<g id="stuff">
	<rect class="st8" width="720" height="360"/>
	<rect y="315" class="st6" width="720" height="45"/>
	<g>
		<ellipse class="st13" cx="76" cy="216.9" rx="6.3" ry="4.3"/>
		<path class="st16" d="M245.6,308.4H51.8c-5.5,0-10-4.5-10-10v-60.9c0-5.5,4.5-10,10-10h193.8c5.5,0,10,4.5,10,10v60.9
			C255.6,304,251.1,308.4,245.6,308.4z"/>
		<path class="st16" d="M263.5,224.6H32.9c-1.8,0-3.2-1.4-3.2-3.2v-1.2c0-1.8,1.4-3.2,3.2-3.2h230.7c1.8,0,3.2,1.4,3.2,3.2v1.2
			C266.8,223.2,265.3,224.6,263.5,224.6z"/>
		<path class="st10" d="M153.6,203.5H83.9c-5.2,0-9.4-4.2-9.4-9.4v-29.8c0-5.2,4.2-9.4,9.4-9.4h69.7c5.2,0,9.4,4.2,9.4,9.4v29.8
			C163,199.3,158.8,203.5,153.6,203.5z"/>
		<rect x="111.3" y="181.2" class="st5" width="14.8" height="33.1"/>
		<rect x="106.9" y="214.3" class="st5" width="23.7" height="2.6"/>
		<rect x="137.3" y="214.3" class="st10" width="61.4" height="2.6"/>
		<rect x="212.8" y="205.7" class="st7" width="32.4" height="11.3"/>
		<rect x="227.6" y="205.7" class="st13" width="32.4" height="11.3"/>
		<polygon class="st7" points="58.4,201.4 46.3,201.3 48,216.8 56.4,216.9 		"/>
		<polygon class="st14" points="47,211.1 57.6,211.1 58.4,205 46.2,205 		"/>
		
			<rect x="46.3" y="199.8" transform="matrix(1 6.099896e-03 -6.099896e-03 1 1.2244 -0.3155)" class="st14" width="12.1" height="1.6"/>
		<polygon class="st14" points="58.4,198.2 56.9,198.2 46.3,199.7 58.4,199.8 		"/>
		<path class="st14" d="M58.6,201.3l-12.5-0.1l0,0.7c2.6,0,5.3,0,7.9,0c1.5,0,3,0,4.5,0C58.5,201.8,58.6,201.6,58.6,201.3z"/>
	</g>
	<g>
		<path class="st10" d="M386.1,185.4c-5.5,7.5-21.6,33.9-20.3,68c1,25.5,11.2,43.9,16.5,52.3l12.4-1.1c1.2-3.7,2.9-9.4,4.1-16.5
			c2.2-13.4,0.2-17.1,1.9-24.4c3.3-14.7,15.2-16.3,22.6-28.9c4.7-8.1,8.1-21.7,0.4-45.1"/>
		<path class="st5" d="M433.5,185.4c3.6,9.1,5,22,4.5,27.1c-0.9,9-4.4,13.8-1.7,20.3c0.2,0.4,3,6.9,9,8.5c5.8,1.6,11.2-2.4,16.9-6.2
			c6.7-4.4,16.5-10.3,29.9-16.4l6.8,8.5c-2.3,4.5-17,32.9-46.8,38.3c-5.1,0.9-16.6,2.9-28.8-2.8c-26.3-11.1-37.1-75.6-37.2-77.3"/>
		<ellipse class="st10" cx="413.3" cy="94" rx="14.6" ry="20.1"/>
		<polyline class="st7" points="389.2,166.9 374.1,170.7 371.4,160.2 386.8,151.7 		"/>
		<path class="st11" d="M364.1,182.3l8-3.7c0.6-0.3,1-1.1,0.8-1.9l-4.4-23.4c-0.2-1.1-1.2-1.8-2-1.4l-7.9,3.8
			c-0.6,0.3-0.9,1.1-0.8,1.9l4.3,23.3C362.3,181.9,363.3,182.6,364.1,182.3z"/>
		<path class="st12" d="M418.7,243.1h-29.6c-4.9,0-8.9-4-8.9-8.9v-14.6c0-4.9,4-8.9,8.9-8.9h29.6c4.9,0,8.9,4,8.9,8.9v14.6
			C427.6,239.1,423.6,243.1,418.7,243.1z"/>
		<path class="st13" d="M399.3,118.5c-6.4,2.3-7.2,5.7-9.8,13.4c-2.1,6.3-6.6,11.7-5.3,18.5c4.5,22.3-4.1,41.7-4.1,41.7
			s71.3-9.8,71.3-9.8c0-7.5-0.6-16.9-3-27.4c-3.5-15.3-9.4-27.3-14.3-35.3"/>
		<path class="st7" d="M410.7,203.2c4.2-3.3,6-5,11.5-17.7c5.6-13,6-24.9,6.1-32.8c0.2-10.4,0.4-18.2-3.6-21.5
			c-4.5-3.8-12.7-0.4-15.9,6c-3,5.9-0.9,12.6,0,19.9c1.2,9.8,0.7,23.7-7.3,41.5L410.7,203.2z"/>
		<path class="st26" d="M407.8,217.9h-7.5c-2.1,0-3.8-1.7-3.8-3.8v-6.1c0-2.1,1.7-3.8,3.8-3.8h7.5c2.1,0,3.8,1.7,3.8,3.8v6.1
			C411.5,216.3,409.8,217.9,407.8,217.9z"/>
		<path class="st16" d="M420.7,225.7h-33.5c-2.8,0-5-2.2-5-5v-6.8c0-2.8,2.2-5,5-5h33.5c2.8,0,5,2.2,5,5v6.8
			C425.8,223.5,423.5,225.7,420.7,225.7z"/>
		<path class="st14" d="M398.9,84.3c-1-0.9,2.4-9.9,9.8-13.2c6.9-3,14.1,0.4,17.3,1.9c7.3,3.5,9.7,7.8,21.1,21.8
			c14.5,17.9,45.9,12.5,47,14.3c1.1,1.8-10.5,14.8-27.4,18.4c-9.1,2-16.5,0.5-25.2-1.1c-11.6-2.2-18.8-3.6-22.6-9.4
			c-3.5-5.4,0.1-8.3-3.4-19.9c-0.7-2.3-4.5-15-10.5-15.4c-1.4-0.1-3.5,2.6-5.8,2.7C399,84.3,399,84.3,398.9,84.3z"/>
		<polygon class="st13" points="371.4,174.9 363.3,178.6 359.5,158.8 367.6,155.4 		"/>
	</g>
	<g>
		<path class="st16" d="M719.8,126.2h-175c-0.7,0-1.2,0.6-1.2,1.2l0,0c0,0.7,0.6,1.2,1.2,1.2h175c0.7,0,1.2-0.6,1.2-1.2l0,0
			C721,126.7,720.5,126.2,719.8,126.2z"/>
		<g>
			<rect x="560.1" y="92.1" class="st4" width="5.2" height="34.1"/>
			<rect x="560.1" y="102" class="st17" width="5.2" height="5.5"/>
		</g>
		<g>
			<rect x="566.5" y="92.1" class="st4" width="5.2" height="34.1"/>
			<rect x="566.5" y="102" class="st17" width="5.2" height="5.5"/>
		</g>
		<g>
			<rect x="572.9" y="92.1" class="st4" width="5.2" height="34.1"/>
			<rect x="572.9" y="102" class="st17" width="5.2" height="5.5"/>
		</g>
		<g>
			<rect x="579.4" y="92.1" class="st4" width="5.2" height="34.1"/>
			<rect x="579.4" y="102" class="st17" width="5.2" height="5.5"/>
		</g>
		<g>
			<rect x="585.8" y="92.1" class="st4" width="5.2" height="34.1"/>
			<rect x="585.8" y="102" class="st17" width="5.2" height="5.5"/>
		</g>
		<g>
			<rect x="592.2" y="92.1" class="st4" width="5.2" height="34.1"/>
			<rect x="592.2" y="102" class="st17" width="5.2" height="5.5"/>
		</g>
		<g>
			<rect x="598.6" y="98" class="st4" width="9.7" height="28.2"/>
			<rect x="598.6" y="106.2" class="st14" width="9.7" height="4.5"/>
		</g>
		<g>
			<rect x="609.8" y="82.2" class="st4" width="9.7" height="44"/>
			<rect x="609.8" y="95" class="st5" width="9.7" height="7"/>
		</g>
		<g>
			<rect x="620.3" y="82.2" class="st4" width="9.7" height="44"/>
			<rect x="620.3" y="95" class="st5" width="9.7" height="7"/>
		</g>
		<g>
			<rect x="630.9" y="82.2" class="st4" width="9.7" height="44"/>
			<rect x="630.9" y="95" class="st5" width="9.7" height="7"/>
		</g>
		<g>
			<rect x="642" y="88.9" class="st4" width="4.8" height="37.2"/>
			<rect x="642" y="99.8" class="st14" width="4.8" height="6"/>
		</g>
		<g>
			<rect x="647.7" y="88.9" class="st4" width="4.8" height="37.2"/>
			<rect x="647.7" y="99.8" class="st14" width="4.8" height="6"/>
		</g>
		<g>
			<rect x="653.5" y="88.9" class="st4" width="4.8" height="37.2"/>
			<rect x="653.5" y="99.8" class="st14" width="4.8" height="6"/>
		</g>
		<g>
			
				<rect x="671.2" y="102.4" transform="matrix(-1.836970e-16 1 -1 -1.836970e-16 797.5256 -557.4274)" class="st4" width="12.6" height="35.3"/>
			
				<rect x="675.7" y="117.2" transform="matrix(-1.836970e-16 1 -1 -1.836970e-16 802.062 -561.9637)" class="st17" width="12.6" height="5.7"/>
		</g>
		<g>
			
				<rect x="672.5" y="91.6" transform="matrix(-1.836970e-16 1 -1 -1.836970e-16 784.9625 -568.2709)" class="st4" width="8.3" height="33.6"/>
			
				<rect x="676.8" y="105.7" transform="matrix(-1.836970e-16 1 -1 -1.836970e-16 789.2779 -572.5863)" class="st5" width="8.3" height="5.4"/>
		</g>
	</g>
	<g>
		<path class="st16" d="M177.1,125.8H1.2c-0.7,0-1.2,0.6-1.2,1.2l0,0c0,0.7,0.6,1.2,1.2,1.2h175.9c0.7,0,1.2-0.6,1.2-1.2l0,0
			C178.4,126.4,177.8,125.8,177.1,125.8z"/>
		<g>
			<rect x="57.4" y="91.8" class="st4" width="5.2" height="34.1"/>
			<rect x="57.4" y="101.7" class="st17" width="5.2" height="5.5"/>
		</g>
		<g>
			<rect x="63.8" y="91.8" class="st4" width="5.2" height="34.1"/>
			<rect x="63.8" y="101.7" class="st17" width="5.2" height="5.5"/>
		</g>
		<g>
			<rect x="70.3" y="91.8" class="st4" width="5.2" height="34.1"/>
			<rect x="70.3" y="101.7" class="st17" width="5.2" height="5.5"/>
		</g>
		<g>
			<rect x="116.4" y="97.6" class="st4" width="9.7" height="28.2"/>
			<rect x="116.4" y="105.9" class="st14" width="9.7" height="4.5"/>
		</g>
		<g>
			<rect x="148.2" y="90.4" class="st4" width="9.7" height="35.5"/>
			<rect x="148.2" y="100.7" class="st5" width="9.7" height="5.7"/>
		</g>
		<g>
			<rect x="158.8" y="90.4" class="st4" width="9.7" height="35.5"/>
			<rect x="158.8" y="100.7" class="st5" width="9.7" height="5.7"/>
		</g>
		<g>
			<rect x="129.1" y="81.8" class="st4" width="4.9" height="44"/>
			<rect x="129.1" y="94.7" class="st14" width="4.9" height="7"/>
		</g>
		<g>
			<rect x="134.8" y="81.8" class="st4" width="4.9" height="44"/>
			<rect x="134.8" y="94.7" class="st14" width="4.9" height="7"/>
		</g>
		<g>
			<rect x="140.7" y="81.8" class="st4" width="4.9" height="44"/>
			<rect x="140.7" y="94.7" class="st14" width="4.9" height="7"/>
		</g>
		<g>
			
				<rect x="93.4" y="105.7" transform="matrix(-1.836970e-16 1 -1 -1.836970e-16 219.2235 27.7175)" class="st4" width="4.7" height="35.5"/>
			
				<rect x="98" y="120.6" transform="matrix(-1.836970e-16 1 -1 -1.836970e-16 223.7833 23.1577)" class="st17" width="4.7" height="5.7"/>
		</g>
		<g>
			
				<rect x="91.9" y="99.7" transform="matrix(-1.836970e-16 1 -1 -1.836970e-16 212.1139 21.0927)" class="st4" width="7.3" height="33.8"/>
			
				<rect x="96.2" y="113.9" transform="matrix(-1.836970e-16 1 -1 -1.836970e-16 216.4516 16.755)" class="st5" width="7.3" height="5.4"/>
		</g>
		<g>
			
				<rect x="92.7" y="90.4" transform="matrix(-1.836970e-16 1 -1 -1.836970e-16 204.4812 11.7315)" class="st4" width="7.3" height="35.5"/>
			
				<rect x="97.3" y="105.3" transform="matrix(-1.836970e-16 1 -1 -1.836970e-16 209.041 7.1717)" class="st14" width="7.3" height="5.7"/>
		</g>
	</g>
	<g>
		<path class="st14" d="M631.7,245c1.4-0.8,4-2,7.3-2.3c4.8-0.3,8.4,1.6,9.8,2.5c2.7-4,8.6-5.5,10.2-8.3c1.9-3.2,0.3-7-1.5-8.9
			c-2.1-2.1-4.9-2.1-6.8-2.1c-5.2,0.1-12.6,1.6-14.3,3.1c0.2,1.9,0.4,5.5-1.1,9.7c-1.1,3.1-2.6,5.2-3.7,6.5"/>
		<path class="st14" d="M618.2,239.1c-1.2-0.8-3.1-1.8-5.7-2.1c-0.6-0.1-6-0.6-9.4,3c-1.7,1.8-2.5,3.5-2.5,3.5s-0.6-5.2-2.7-11.5
			c-0.6-1.8-2.2-6.5-6.2-10.5c-3-3.1-4-2.3-8.1-6.2c-3.2-3-5.7-5.3-6.3-9c-0.1-0.7-0.8-4.8,1.9-7.9c2.1-2.4,5-2.7,6.7-3
			c1.2-0.1,4.2-0.4,9.4,1.7c6.4,2.6,10.5,6.4,12.8,8.6c1,1,4.8,4.6,8.4,10.5c2.8,4.6,4.5,12.1,5.6,15.3c-0.3,0.3-5,3.1-4.5,5.6
			C617.5,237.5,618,238.8,618.2,239.1z"/>
		<path class="st14" d="M626.5,220.2c3.7-3.1,17.4-13.4,30.7-14.4c5.8-0.4,10.7,0.3,14.3,1.3c13.1-11.3,15.2-26.2,18.1-33.1
			c3.5-8.3,7-16.6,3-22.5c-6.1-9.1-24.9-5.5-26.9-5.1c-4.8,0.9-10.3,2.8-25.3,13c-7.1,4.8-21.8,16-32.4,25c3.1,2,10.3,7.1,14.3,16.6
			c2.2,5.3,3.7,16.2,3.7,19.4"/>
		<path class="st25" d="M623.5,272.1c-1.4-9.4-3.9-33.6,6-60.2c11.2-30.1,31.2-44.2,37.9-48.4"/>
		<path class="st25" d="M620.4,279.9c-0.8-4.1-2.1-14.7,4.9-26.5c7.9-13.3,21.3-19.8,25.8-21.8"/>
		<path class="st25" d="M598,210.8c2.5,2.7,5.8,6.5,9.4,11.2c0.6,0.8,5.5,7.3,8.3,12.5c2.5,4.5,7,14.6,6.5,31.2"/>
		<path class="st5" d="M642,309.2h-39.5c-2.4,0-4.6-1.7-5.2-4l-10.2-39.3c-0.9-3.4,1.7-6.7,5.2-6.7h59.9c3.5,0,6.1,3.3,5.2,6.7
			l-10.2,39.3C646.6,307.5,644.4,309.2,642,309.2z"/>
	</g>
</g>
<g id="Layer_5">
</g>
</svg>
